    <svg xmlns="http://www.w3.org/2000/svg" viewBox="0 0 196.25 81.29" svg-inline="" role="presentation" focusable="false" tabindex="-1" className="map-arrow"><path d="M160.34 50.78c-5.48.36-10.92-1.51-16.2.06-4.5 1.34-8.91-.44-13.33.2-3.26.47-6.52-.06-9.75.12-5.12.29-10.2-.03-15.29-.35-.79-.05-1.48-.25-2.12-.72a4.419 4.419 0 00-3.61-.75c-4.81 1.07-9.58.51-14.38-.03-5.46-.62-10.88-1.83-16.44-1.07-1.59.22-3.18-.18-4.76-.45-7.39-1.27-14.67-3.08-22.15-3.86-4.18-.44-8.26-1.53-12.08-3.37-2.79-1.34-5.45-2.55-8.79-2.43-2.92.1-6-.77-8.79-1.8-1.45-.53-2.82-1.8-4.13-2.73-1.78-1.26-3.8-2.09-5.54-3.41-4.01-3.04-3.65-7.84-.7-11.39 2.95-3.55 6.16-3.54 10.24-1.97 6.84 2.63 13.81 4.83 21.15 6.01 6.46 1.04 12.9 2.32 19.33 3.62.95.19 1.87.77 2.7 1.32 1.23.81 2.81 1.19 3.85.56 2.82-1.71 5.72-.57 8.57-.7.89-.04 2.02.06 2.67.57 1.96 1.53 4.22 1.71 6.47 1.61 3-.14 5.93 0 8.86.67 1.39.32 2.91.4 4.27-.08 2.03-.71 3.64-.38 5.71.45 2.77 1.12 5.97.38 8.85-.63 2.22-.77 4.04-.72 6.17.67 1.76 1.15 4.21.48 6.35.49.84.01 1.69-.22 2.45.24 1.15.7 2.17.6 3.28-.16.77-.53 1.73-.8 2.66-.4 2.7 1.17 5.41 1.49 8.43 1.48 6.06-.01 12.1 1 18.19 1 1.23 0 2.29-.26 3.43-1.04-1.1-.73-1.9-1.75-3.14-1.73-5.24.07-7.57-3.57-9.77-7.42-.21-.36-.42-1-.66-1.02-3.29-.24-4.18-4.23-7.36-4.63-1.11-.14-1.66-1-1.94-2.08-.43-1.68-1.2-3.04-3.02-3.73-2.96-1.12-2.18-6.02-.54-8.52 2.11-3.2 6.17-4.3 9.68-2.55 3.19 1.6 5.42 4.07 8.16 5.87 2.97 1.95 6.27 3.9 9.86 5.02 5.43 1.69 10.8 3.62 14.59 8.21 1.4 1.69 3.6 1.64 5.32 2.71 5.44 3.39 10.59 7.27 16.48 9.94 2.75 1.24 3.25 3.02 2.23 5.9-1.15 3.26-3.02 5.97-5.91 7.92-.7.48-1.41 1-1.72 1.81-.61 1.59-1.62 2.66-3.3 3.19-3.4 1.08-4.34 4.58-6.55 6.84-6.88 7.06-14.6 13.18-21.81 19.87-4.95 4.59-9.25 3.7-14.38.47-1.92-1.21-2-3.07-1.12-4.62 1.07-1.88 1.6-4.04 3.1-5.72 1.44-1.61 2.59-3.36 2.97-5.69.34-2.12 2.85-2.7 4.2-4.15 2.68-2.88 5.99-5.02 9.06-7.62z" fill="#fbe02f"></path></svg>